<?xml version='1.0' encoding='utf-8'?>
<svg xmlns:xlink="http://www.w3.org/1999/xlink" xmlns="http://www.w3.org/2000/svg" width="46.12236" height="40.548332" viewBox="0 0 46.12236 40.548332" version="1.1" id="svg5"> <defs id="defs2"> <linearGradient id="linearGradient768"> <stop style="stop-color:#ff2d70;stop-opacity:1;" offset="0" id="stop764"/> <stop style="stop-color:#ff92b3;stop-opacity:1;" offset="1" id="stop766"/> </linearGradient> <linearGradient xlink:href="#linearGradient768" id="linearGradient770" x1="4.8777509" y1="53.388088" x2="42.383682" y2="5.9446592" gradientUnits="userSpaceOnUse" gradientTransform="matrix(0.90553312,0,0,0.61840817,2.2819449,4.2284121)"/> <filter style="color-interpolation-filters:sRGB" id="filter2049" x="-0.10406504" y="-0.12210666" width="1.2225837" height="1.2611727"> <feFlood flood-opacity="0.65098" flood-color="rgb(0,0,0)" result="flood" id="feFlood2039"/> <feComposite in="SourceGraphic" in2="flood" operator="in" result="composite1" id="feComposite2041"/> <feGaussianBlur in="composite1" stdDeviation="1.5" result="blur" id="feGaussianBlur2043"/> <feOffset dx="0.5" dy="0.5" result="offset" id="feOffset2045"/> <feComposite in="SourceGraphic" in2="offset" operator="over" result="composite2" id="feComposite2047"/> </filter> </defs> <g id="layer1" transform="translate(-1.211453,-3.9984665)"> <g id="g2025" transform="matrix(1.0905242,0,0,1.0905242,-2.17258,-0.465441)" style="filter:url(#filter2049)"> <path id="rect739" style="fill:url(#linearGradient770);fill-opacity:1;stroke-width:1.30371;stroke-linecap:round;stop-color:#000000" d="m 8.7304688,7.6933594 c -1.1240018,0 -2.0273438,0.9052951 -2.0273438,2.0292968 V 29.291016 c 0,1.124001 0.903342,2.029296 2.0273438,2.029296 H 22.138672 v 3.490235 h -4.230469 c -0.361129,0 -0.652344,0.291214 -0.652344,0.652344 v 1.060547 c 0,0.361129 0.291215,0.652343 0.652344,0.652343 h 12.148438 c 0.361129,0 0.652343,-0.291214 0.652343,-0.652343 v -1.060547 c 0,-0.36113 -0.291214,-0.652344 -0.652343,-0.652344 h -4.230469 v -3.490235 h 13.443359 c 1.124002,0 2.027344,-0.905295 2.027344,-2.029296 V 9.7226562 c 0,-1.1240017 -0.903342,-2.0292968 -2.027344,-2.0292968 z"/> <rect style="fill:#ffffff;fill-opacity:0.65;stroke-width:1.5407;stroke-linecap:round;stop-color:#000000" id="rect876" width="29.964413" height="4.9387965" x="8.9334927" y="11.910742" ry="1.3651066"/> <rect style="fill:#ffffff;fill-opacity:0.65;stroke-width:1.31082;stroke-linecap:round;stop-color:#000000" id="rect932" width="13.262629" height="8.0769806" x="8.9334927" y="17.926193" ry="0.95562232"/> <rect style="fill:#ffffff;fill-opacity:0.65;stroke-width:0.693543;stroke-linecap:round;stop-color:#000000" id="rect981" width="14.624857" height="2.0504432" x="24.054264" y="17.926193" ry="0.69397253"/> <rect style="fill:#ffffff;fill-opacity:0.65;stroke-width:0.693543;stroke-linecap:round;stop-color:#000000" id="rect983" width="14.624857" height="2.0504432" x="24.054264" y="20.87097" ry="0.69397253"/> <rect style="fill:#ffffff;fill-opacity:0.65;stroke-width:0.693543;stroke-linecap:round;stop-color:#000000" id="rect985" width="14.624857" height="2.0504432" x="24.054264" y="23.894817" ry="0.69397253"/> <rect style="fill:#ffffff;fill-opacity:0.65;stroke-width:0.988319;stroke-linecap:round;stop-color:#000000" id="rect989" width="29.698799" height="2.0504432" x="8.98032" y="26.902721" ry="0.69853187"/> <circle style="fill:#ffffff;fill-opacity:0.65;stroke-width:1.41255;stroke-linecap:round;stop-color:#000000" id="path1081" cx="9.820919" cy="9.9104395" r="1.0058151"/> <circle style="fill:#ffffff;fill-opacity:0.65;stroke-width:1.41255;stroke-linecap:round;stop-color:#000000" id="circle1083" cx="12.490849" cy="9.9104395" r="1.0058151"/> <circle style="fill:#ffffff;fill-opacity:0.65;stroke-width:1.41255;stroke-linecap:round;stop-color:#000000" id="circle1085" cx="15.044742" cy="9.9104395" r="1.0058151"/> </g> </g> </svg>